<svg width="30" height="24" viewBox="0 0 30 24" fill="none" xmlns="http://www.w3.org/2000/svg">
<path d="M24.9408 0.495239H5.0596C2.30024 0.499927 0.0644008 2.73588 0.0596008 5.49524V13.6764C0.0596008 14.228 0.508041 14.6764 1.0596 14.6764C1.61272 14.6764 2.0596 14.228 2.0596 13.6764V8.80004H27.9408V18.4952C27.9377 20.1515 26.597 21.4937 24.9408 21.4952H9.9C9.34844 21.4952 8.9 21.9437 8.9 22.4952C8.9 23.0484 9.34844 23.4952 9.9 23.4952H24.9408C27.7002 23.4921 29.9376 21.2562 29.9408 18.4952V5.49524C29.9361 2.73588 27.7002 0.500039 24.9408 0.495239ZM2.0596 6.80004V5.49536C2.06273 3.84068 3.40336 2.49848 5.0596 2.49536H24.9408C26.597 2.49848 27.9377 3.84068 27.9408 5.49536V6.80004H2.0596ZM7.722 19.6752C7.722 19.9409 7.61731 20.1956 7.42981 20.383C7.24231 20.5705 6.98761 20.6752 6.72201 20.6752H4.89233V22.5049C4.89233 23.0565 4.44545 23.5049 3.89233 23.5049C3.34077 23.5049 2.89233 23.0565 2.89233 22.5049V20.6752H1.06421C0.511093 20.6752 0.0642128 20.2268 0.0642128 19.6752C0.0642128 19.1237 0.511093 18.6752 1.06421 18.6752H2.89389V16.8455H2.89233C2.89233 16.294 3.34077 15.8455 3.89233 15.8455C4.44545 15.8455 4.89233 16.294 4.89233 16.8455V18.6752H6.72201C7.27357 18.6752 7.72201 19.1221 7.72201 19.6752L7.722 19.6752ZM21.8064 17.8284C21.2533 17.8284 20.8064 17.3799 20.8064 16.8284C20.8064 16.2752 21.2533 15.8284 21.8064 15.8284H24.2033C24.7564 15.8284 25.2033 16.2752 25.2033 16.8284C25.2033 17.3799 24.7564 17.8284 24.2033 17.8284H21.8064Z" fill="#79B791"/>
</svg>
