<svg width="38" height="32" viewBox="0 0 38 32" fill="none" xmlns="http://www.w3.org/2000/svg">
<path d="M13.4 24.6408C7.4408 24.6408 2.6 19.8 2.6 13.8C2.6 7.84082 7.4408 3.00002 13.4 3.00002C18.7592 3.00002 23.2408 6.95938 24.0796 12.0796C24.8796 11.7202 25.6796 11.439 26.5593 11.239C25.3999 5.04058 19.9201 0.39978 13.4001 0.39978C6.04088 0.39978 8.01086e-05 6.39978 8.01086e-05 13.7998C8.01086e-05 21.1998 6.04088 27.2406 13.4001 27.2406C15.0001 27.2406 16.5594 26.9609 18.0409 26.4406C17.7612 25.6406 17.5612 24.7609 17.4409 23.8812C16.2002 24.3593 14.8409 24.6406 13.4001 24.6406L13.4 24.6408Z" fill="#79B791"/>
<path d="M12.5592 21.5592H14.2795C14.4795 21.5592 14.6389 21.3998 14.6389 21.1998V19.9202C16.1983 19.5608 17.4795 18.3202 17.6389 16.6795C17.8389 14.4795 16.1186 12.5999 13.9592 12.5999H12.9592C12.2389 12.5999 11.6795 12.0406 11.6795 11.3202C11.6795 10.5999 12.2389 10.0406 12.9592 10.0406H13.9592C14.5592 10.0406 15.0795 10.4812 15.1999 11.0406C15.2405 11.1999 15.3999 11.3202 15.5592 11.3202H17.2796C17.4796 11.3202 17.6796 11.1202 17.6389 10.9202C17.4796 9.27961 16.2389 7.96089 14.6389 7.67961V6.43897C14.6389 6.23897 14.4796 6.07959 14.2796 6.07959H12.5592C12.3592 6.07959 12.1999 6.23897 12.1999 6.43897V7.67961C10.3592 8.03898 9.0405 9.72025 9.19986 11.6796C9.39986 13.5999 11.1202 15.039 13.0795 15.039H13.9202C14.6405 15.039 15.1999 15.5983 15.1999 16.3186C15.1999 17.039 14.6405 17.5983 13.9202 17.5983H12.9202C12.3202 17.5983 11.7999 17.1577 11.6795 16.5983C11.6389 16.439 11.4795 16.3186 11.3202 16.3186H9.59984C9.39984 16.3186 9.19984 16.5186 9.24047 16.7186C9.39984 18.3593 10.6405 19.678 12.2405 19.9593V21.1999C12.1998 21.3999 12.3592 21.5593 12.5592 21.5593L12.5592 21.5592Z" fill="#79B791"/>
<path d="M28.9999 13.5592C24.0407 13.5592 19.9999 17.6 19.9999 22.5592C19.9593 27.5592 23.9999 31.6 28.9999 31.6C33.9999 31.6 37.9999 27.5592 37.9999 22.6C37.9999 17.6 33.9591 13.5592 28.9999 13.5592ZM32.7202 23.8796H30.2405V26.3593C30.2405 27.0796 29.6812 27.639 28.9609 27.639C28.2405 27.639 27.6812 27.0796 27.6812 26.3593V23.8796H25.2015C24.4812 23.8796 23.9218 23.3202 23.9218 22.5999C23.9218 21.8796 24.4812 21.3202 25.2015 21.3202H27.6812V18.8406C27.6812 18.1202 28.2405 17.5609 28.9609 17.5609C29.6812 17.5609 30.2405 18.1202 30.2405 18.8406V21.3202H32.7202C33.4405 21.3202 33.9999 21.8796 33.9999 22.5999C33.9999 23.3202 33.4405 23.8796 32.7202 23.8796Z" fill="#79B791"/>
</svg>
