<svg width="38" height="24" viewBox="0 0 38 24" fill="#79B791" xmlns="http://www.w3.org/2000/svg">
<path d="M11.292 6.08113L10.2498 6.44676V5.37488C10.2498 5.02957 9.97011 4.74988 9.6248 4.74988C9.27949 4.74988 8.9998 5.02957 8.9998 5.37488V6.44832L7.9576 6.08113C7.63104 5.96707 7.2748 6.13894 7.16072 6.46394C7.0451 6.78894 7.21697 7.14674 7.54197 7.26082L8.56697 7.6202L7.77477 8.44052C7.53415 8.68895 7.54196 9.08427 7.79039 9.32487C8.03883 9.56394 8.43415 9.55769 8.67475 9.30925L9.62475 8.32489L10.5748 9.31241C10.8154 9.56085 11.2107 9.5671 11.4591 9.32803C11.7075 9.08741 11.7154 8.69212 11.4747 8.44368L10.6825 7.62336L11.7075 7.26398V7.26242C12.0325 7.14835 12.2044 6.7921 12.0888 6.46554C11.9747 6.14054 11.6185 5.96866 11.2919 6.08429L11.292 6.08113Z" fill=" #79B791"/>
<path d="M17.542 6.08113L16.4998 6.44676V5.37488C16.4998 5.02957 16.2201 4.74988 15.8748 4.74988C15.5295 4.74988 15.2498 5.02957 15.2498 5.37488V6.44832L14.2076 6.08113C13.881 5.96707 13.5248 6.13894 13.4107 6.46394C13.2951 6.78894 13.467 7.14674 13.792 7.26082L14.817 7.6202L14.0248 8.44052C13.7841 8.68895 13.792 9.08427 14.0404 9.32487C14.2888 9.56394 14.6842 9.55769 14.9248 9.30925L15.8748 8.32489L16.8248 9.31241C17.0654 9.56085 17.4607 9.5671 17.7091 9.32803C17.9575 9.08741 17.9654 8.69212 17.7247 8.44368L16.9325 7.62336L17.9575 7.26398V7.26242C18.2825 7.14835 18.4544 6.7921 18.3388 6.46554C18.2247 6.14054 17.8685 5.96866 17.5419 6.08429L17.542 6.08113Z" fill=" #79B791"/>
<path d="M23.792 6.08113L22.7498 6.44676V5.37488C22.7498 5.02957 22.4701 4.74988 22.1248 4.74988C21.7795 4.74988 21.4998 5.02957 21.4998 5.37488V6.44832L20.4576 6.08113C20.131 5.96707 19.7748 6.13894 19.6607 6.46394C19.5451 6.78894 19.717 7.14674 20.042 7.26082L21.067 7.6202L20.2748 8.44052C20.0341 8.68895 20.042 9.08427 20.2904 9.32487C20.5388 9.56394 20.9342 9.55769 21.1748 9.30925L22.1248 8.32489L23.0748 9.31241C23.3154 9.56085 23.7107 9.5671 23.9591 9.32803C24.2075 9.08741 24.2154 8.69212 23.9747 8.44368L23.1825 7.62336L24.2075 7.26398V7.26242C24.5325 7.14835 24.7044 6.7921 24.5888 6.46554C24.4747 6.14054 24.1185 5.96866 23.7919 6.08429L23.792 6.08113Z" fill=" #79B791"/>
<path d="M30.042 6.08113L28.9998 6.44676V5.37488C28.9998 5.02957 28.7201 4.74988 28.3748 4.74988C28.0295 4.74988 27.7498 5.02957 27.7498 5.37488V6.44832L26.7076 6.08113C26.381 5.96707 26.0248 6.13894 25.9107 6.46394C25.7951 6.78894 25.967 7.14674 26.292 7.26082L27.317 7.6202L26.5248 8.44052C26.2841 8.68895 26.292 9.08427 26.5404 9.32487C26.7888 9.56394 27.1842 9.55769 27.4248 9.30925L28.3748 8.32489L29.3248 9.31241C29.5654 9.56085 29.9607 9.5671 30.2091 9.32803C30.4575 9.08741 30.4654 8.69212 30.2247 8.44368L29.4325 7.62336L30.4575 7.26398V7.26242C30.7825 7.14835 30.9544 6.7921 30.8388 6.46554C30.7247 6.14054 30.3685 5.96866 30.0419 6.08429L30.042 6.08113Z" fill=" #79B791"/>
<path d="M35.8752 0.124756H2.1252C1.43456 0.124756 0.8752 0.684116 0.8752 1.37476V13.25C0.8752 13.5812 1.00645 13.9 1.24082 14.1343C1.4752 14.3687 1.79394 14.4999 2.12518 14.4999H12.6032C11.7704 16.6171 12.0375 19.0079 13.3173 20.8875C14.5985 22.7672 16.7251 23.8922 19.0001 23.8922C21.2751 23.8922 23.4017 22.7672 24.6829 20.8875C25.9625 19.0079 26.2297 16.6171 25.3969 14.4999H35.8749C36.2062 14.4999 36.5249 14.3687 36.7593 14.1343C36.9937 13.8999 37.1249 13.5812 37.1249 13.25V1.37476C37.1249 1.04351 36.9937 0.724756 36.7593 0.490396C36.5249 0.25602 36.2062 0.124772 35.8749 0.124772L35.8752 0.124756ZM19 22.6248C16.725 22.6248 14.6736 21.2544 13.8032 19.1529C12.9329 17.0498 13.4141 14.6309 15.022 13.0217C16.6313 11.4139 19.05 10.9326 21.1532 11.8029C23.2547 12.6732 24.625 14.7248 24.625 16.9997C24.6219 20.1044 22.1047 22.6217 19.0002 22.6245L19 22.6248ZM19 10.1248C18.0172 10.1263 17.0453 10.3388 16.1531 10.7498H4.62512V3.87456H33.3751V10.7498H21.8471C20.9549 10.3388 19.983 10.1263 19.0002 10.1248H19ZM35.8752 13.2498H24.7548C24.4548 12.7935 24.1017 12.3732 23.7032 11.9998H34C34.1657 11.9998 34.325 11.9341 34.4422 11.8169C34.5594 11.6998 34.6251 11.5404 34.6251 11.3747V3.24994C34.6251 3.08432 34.5594 2.92494 34.4422 2.80774C34.3251 2.69054 34.1657 2.62493 34 2.62493H4.00004C3.65473 2.62493 3.37504 2.90462 3.37504 3.24993V11.3747C3.37504 11.5404 3.44066 11.6997 3.55785 11.8169C3.67504 11.9341 3.83442 11.9997 4.00005 11.9997H14.2969C13.8984 12.3732 13.5453 12.7935 13.2453 13.2497H2.12489V1.37454H35.8749L35.8752 13.2498Z" fill=" #79B791"/>
<path d="M21.6828 14.6828L18.6875 17.6781L16.9422 15.9328C16.6968 15.6968 16.3062 15.7 16.0656 15.9406C15.825 16.1812 15.8218 16.5718 16.0578 16.8171L18.2453 19.0047C18.4891 19.2484 18.8859 19.2484 19.1297 19.0047L22.5672 15.5671C22.8031 15.3218 22.8 14.9312 22.5594 14.6906C22.3187 14.45 21.9281 14.4468 21.6828 14.6828H21.6828Z" fill="#79B791"/>
</svg>
