<svg xmlns="http://www.w3.org/2000/svg" width="430" height="430" style="width:100%;height:100%;transform:translate3d(0,0,0);content-visibility:visible" viewBox="0 0 430 430"><defs><clipPath id="a"><path d="M0 0h430v430H0z"/></clipPath><clipPath id="e"><path d="M0 0h430v430H0z"/></clipPath><clipPath id="b"><path d="M0 0h430v430H0z"/></clipPath><clipPath id="d"><path d="M0 0h430v430H0z"/></clipPath><clipPath id="c"><path d="M0 0h430v430H0z"/></clipPath></defs><g fill="none" clip-path="url(#a)"><g clip-path="url(#b)" style="display:none"><g clip-path="url(#c)" style="display:none"><path class="primary" style="display:none"/><path class="primary" style="display:none"/><path class="primary" style="display:none"/><path class="primary" style="display:none"/><path class="primary" style="display:none"/><path class="primary" style="display:none"/><path class="primary" style="display:none"/><path class="primary" style="display:none"/><path class="primary" style="display:none"/><path class="primary" style="display:none"/><path class="primary" style="display:none"/><path class="primary" style="display:none"/><path class="primary" style="display:none"/><path class="primary" style="display:none"/><path class="primary" style="display:none"/><path class="primary" style="display:none"/><path class="primary" style="display:none"/><path class="primary" style="display:none"/></g><g clip-path="url(#d)" style="display:none"><path class="primary" style="display:none"/><path class="primary" style="display:none"/><path class="primary" style="display:none"/><path class="primary" style="display:none"/><path class="primary" style="display:none"/><path class="primary" style="display:none"/><path class="primary" style="display:none"/><path class="primary" style="display:none"/><path class="primary" style="display:none"/><path class="primary" style="display:none"/><path class="primary" style="display:none"/><path class="primary" style="display:none"/><path class="primary" style="display:none"/><path class="primary" style="display:none"/><path class="primary" style="display:none"/><path class="primary" style="display:none"/><path class="primary" style="display:none"/><path class="primary" style="display:none"/></g><path class="primary" style="display:none"/></g><g clip-path="url(#e)" style="display:block"><path stroke="#121331" stroke-linecap="round" stroke-linejoin="round" stroke-width="17.99" d="M0-.166v.332" class="primary" style="display:block" transform="translate(214.904 210.948)"/><path stroke="#121331" stroke-linecap="round" stroke-linejoin="round" stroke-width="7" d="M179.778 183.321a44.273 44.273 0 0 0-9.41 27.361 44.273 44.273 0 0 0 9.41 27.361m-34.977-82.053c-11.798 15.075-18.828 34.059-18.828 54.692 0 20.633 7.03 39.617 18.828 54.692m-35.005-136.725c-17.688 22.612-28.228 51.094-28.228 82.033s10.54 59.421 28.228 82.033" class="primary" style="display:block"/><path class="primary" style="display:none"/><path class="primary" style="display:none"/><path class="primary" style="display:none"/><path class="primary" style="display:none"/><path class="primary" style="display:none"/><path class="primary" style="display:none"/><g style="display:none"><path class="primary"/><path class="primary"/><path class="primary"/></g><path stroke="#121331" stroke-linecap="round" stroke-linejoin="round" stroke-width="7" d="M250.066 183.321a44.273 44.273 0 0 1 9.41 27.361 44.273 44.273 0 0 1-9.41 27.361m34.977-82.053c11.798 15.075 18.828 34.059 18.828 54.692 0 20.633-7.03 39.617-18.828 54.692m35.005-136.725c17.688 22.612 28.228 51.094 28.228 82.033s-10.54 59.421-28.228 82.033" class="primary" style="display:block"/><path class="primary" style="display:none"/><path class="primary" style="display:none"/><path class="primary" style="display:none"/><path class="primary" style="display:none"/><path class="primary" style="display:none"/><path class="primary" style="display:none"/><g style="display:none"><path class="primary"/><path class="primary"/><path class="primary"/></g></g></g></svg>